<?xml version="1.0" standalone="no"?>
<!DOCTYPE svg PUBLIC "-//W3C//DTD SVG 20010904//EN"
 "http://www.w3.org/TR/2001/REC-SVG-20010904/DTD/svg10.dtd">
<svg version="1.0" xmlns="http://www.w3.org/2000/svg"
 width="700.000000pt" height="700.000000pt" viewBox="0 0 700.000000 700.000000"
 preserveAspectRatio="xMidYMid meet">
<metadata>
Created by potrace 1.14, written by Peter Selinger 2001-2017
</metadata>
<g transform="translate(0.000000,700.000000) scale(0.100000,-0.100000)"
fill="#000000" stroke="none">
<path d="M3368 6225 c-2 -2 -48 -6 -103 -9 -55 -4 -116 -9 -135 -12 -373 -61
-599 -133 -900 -290 -317 -165 -579 -377 -832 -672 -210 -243 -429 -652 -512
-952 -10 -36 -22 -76 -27 -90 -12 -36 -46 -205 -54 -270 -4 -30 -9 -62 -10
-70 -26 -140 -25 -514 1 -730 19 -165 90 -439 159 -615 206 -529 574 -984
1045 -1294 107 -70 344 -196 469 -249 128 -54 414 -137 536 -156 17 -2 59 -9
95 -15 157 -25 454 -33 645 -18 757 62 1470 456 1929 1067 31 41 59 80 64 85
45 60 142 226 206 352 249 498 335 1062 250 1638 -8 55 -27 154 -43 220 -29
120 -102 340 -118 356 -5 5 -93 -76 -196 -179 l-187 -187 35 -170 c19 -93 38
-210 42 -260 14 -162 9 -387 -13 -560 -21 -167 -105 -447 -185 -612 -44 -92
-111 -213 -131 -238 -4 -5 -34 -47 -66 -92 -80 -114 -129 -172 -257 -298 -122
-121 -125 -124 -240 -211 -120 -90 -217 -149 -350 -214 -105 -51 -312 -129
-385 -145 -157 -34 -281 -56 -355 -62 -163 -14 -487 -8 -581 11 -12 2 -39 7
-60 10 -250 38 -534 141 -751 272 -76 46 -232 158 -296 212 -56 48 -252 245
-287 291 -19 24 -47 58 -61 75 -31 36 -123 173 -157 231 -48 83 -131 263 -161
348 -33 93 -75 249 -85 312 -2 11 -6 36 -10 55 -3 19 -8 49 -11 65 -30 181
-25 559 10 750 23 125 25 135 51 228 99 353 284 667 554 938 194 196 365 323
585 434 104 53 310 135 378 150 12 2 49 11 82 20 52 13 85 19 215 40 85 14
145 17 312 19 164 2 274 -5 428 -29 113 -18 309 -73 430 -122 149 -60 254
-117 426 -230 21 -13 31 -5 198 160 l176 175 -62 44 c-96 68 -255 162 -377
222 -289 142 -582 225 -929 262 -53 5 -389 13 -394 9z"/>
<path d="M4495 4361 l-1380 -1380 -395 395 -395 394 -178 -178 -178 -179 566
-566 c312 -312 569 -567 572 -567 9 0 3113 3103 3113 3112 0 7 -336 348 -342
348 -2 0 -624 -621 -1383 -1379z"/>
</g>
</svg>
